<svg width="46" height="41" viewBox="0 0 46 41" fill="none" xmlns="http://www.w3.org/2000/svg">
<rect width="30.5245" height="30.5245" transform="matrix(0.753492 -0.657456 0.753492 0.657456 0 20.0685)" fill="url(#paint0_linear_33_38)"/>
<path d="M18.5561 11.4116C17.6833 11.6099 16.9376 12.0291 16.6241 12.5049C16.4716 12.7315 16.4546 12.7372 15.9038 12.7938C14.7768 12.9128 13.8956 13.332 13.4126 13.9891C13.1414 14.3516 13.1329 14.3969 13.1075 15.1447L13.0821 15.9208L12.633 16.0907C12.0483 16.306 11.4382 16.7705 11.1077 17.2293C10.8874 17.5465 10.8451 17.6768 10.8196 18.164C10.7942 18.6512 10.7518 18.7815 10.54 19.0704C10.2095 19.5235 10.0909 20.022 10.2095 20.4752C10.3112 20.8548 10.5908 21.3136 10.862 21.5289C11.0315 21.6648 11.0315 21.6705 10.8705 22.0104C10.54 22.7015 10.8027 23.5738 11.5145 24.1573C11.7517 24.3556 11.9043 24.5538 11.9721 24.7464C12.2856 25.6698 13.3872 26.4062 14.7429 26.5875C15.1243 26.6385 15.2429 26.6781 15.3361 26.8084C15.5225 27.0463 16.2512 27.4995 16.7173 27.6695C18.6578 28.3775 20.9711 27.8734 21.971 26.5252L22.2845 26.1003V19.4726V12.8391L22.0642 12.5219C21.5727 11.8195 20.6321 11.3946 19.5051 11.3606C19.1492 11.3493 18.7594 11.372 18.5561 11.4116ZM20.2508 12.0234C20.4542 12.0857 20.7762 12.25 20.9626 12.386C21.5981 12.8505 21.5727 12.4653 21.5473 19.5859L21.5219 25.9247L21.3015 26.2419C20.988 26.6895 20.5389 26.9953 19.8864 27.2106C19.1323 27.4599 18.2087 27.4995 17.4799 27.3126C17.0393 27.2049 16.1411 26.7461 16.1411 26.6328C16.1411 26.6101 16.2428 26.5705 16.3784 26.5478C16.8275 26.4742 17.463 26.2249 17.8612 25.9644C18.412 25.6075 18.4713 25.5225 18.3019 25.3526C18.0985 25.143 17.8358 25.177 17.4715 25.4659C17.285 25.6188 16.9546 25.7831 16.641 25.8907C15.7089 26.2023 14.5904 26.1173 13.7346 25.6811C13.2177 25.4205 12.8618 25.007 12.7347 24.5312C12.6584 24.2309 12.5906 24.129 12.3195 23.942C11.7941 23.5908 11.6162 23.2849 11.5823 22.7241C11.5484 22.1067 11.5992 22.0557 12.0653 22.2086C13.9803 22.8657 16.3021 22.2653 16.9969 20.9397C17.1833 20.5885 17.141 20.4696 16.8359 20.4186C16.5309 20.3676 16.3953 20.4469 16.2089 20.7811C16.0055 21.155 15.514 21.5232 14.9463 21.7328C14.5311 21.8857 14.4125 21.9027 13.7261 21.9027C12.8279 21.9027 12.3449 21.7781 11.7772 21.3986C10.9128 20.8208 10.7264 19.8464 11.345 19.212C11.506 19.0477 11.5484 18.9117 11.5823 18.4189C11.6331 17.7561 11.7772 17.4332 12.1754 17.0877C13.438 15.9887 15.8954 16.0171 17.0223 17.1387C17.1833 17.2973 17.3359 17.4899 17.3698 17.5692C17.5053 17.8808 17.8189 17.9884 18.107 17.8128C18.3188 17.6825 18.3019 17.5805 17.9629 17.133C17.285 16.221 15.6327 15.6092 14.2176 15.7395L13.8363 15.7735L13.8617 15.156C13.8956 14.6179 13.9295 14.4989 14.1328 14.21C14.4209 13.8248 14.9463 13.5302 15.5734 13.4056C16.5224 13.2187 17.3443 13.3433 18.0307 13.7795C18.4883 14.074 18.6747 14.1137 18.8866 13.9664C19.0645 13.8531 19.056 13.7851 18.8527 13.5586C18.6917 13.3829 17.8358 12.9694 17.4884 12.8958C17.4037 12.8731 17.3274 12.8278 17.3274 12.7881C17.3274 12.6975 17.7002 12.3576 17.946 12.2273C18.5646 11.8875 19.5475 11.8025 20.2508 12.0234Z" fill="white"/>
<path d="M17.7257 14.6009C17.4969 14.7538 17.8189 15.292 18.3104 15.5865C18.7595 15.8471 19.1493 15.9434 19.8102 15.9491C20.3187 15.9548 20.4119 15.9378 20.5475 15.8301C20.7085 15.6942 20.6915 15.5016 20.5136 15.4336C20.4627 15.4109 20.1916 15.3996 19.9119 15.4053C19.251 15.4223 18.8188 15.258 18.5053 14.8671C18.3274 14.6462 18.2341 14.5895 18.0393 14.5782C17.9037 14.5669 17.7596 14.5782 17.7257 14.6009Z" fill="white"/>
<path d="M14.421 17.3086C13.6499 17.4955 13.0483 17.9034 12.9466 18.3226C12.9127 18.4925 12.9296 18.5322 13.116 18.6172C13.3872 18.7305 13.6414 18.6625 13.7177 18.4472C13.7939 18.2376 14.243 17.9261 14.5735 17.8524C14.726 17.8184 15.0311 17.7958 15.2345 17.8014C15.6751 17.8184 15.8869 17.7278 15.8869 17.5295C15.8869 17.269 15.0904 17.15 14.421 17.3086Z" fill="white"/>
<path d="M17.1071 19.0364C16.7174 19.0987 16.6496 19.144 16.6496 19.3253C16.6496 19.5405 16.7428 19.5689 17.4037 19.5745C18.0901 19.5802 18.4036 19.7105 18.7426 20.1353C19.0052 20.4582 19.2001 20.5205 19.4543 20.3676C19.6662 20.2373 19.6577 20.141 19.4035 19.7955C18.9968 19.2516 17.9376 18.9004 17.1071 19.0364Z" fill="white"/>
<path d="M17.3698 22.2483C16.9631 22.5259 17.9037 23.3586 18.8019 23.5229C19.2934 23.6135 20.039 23.5625 20.1746 23.4322C20.4627 23.1717 20.2085 23.0074 19.5391 23.013C18.8019 23.0244 18.4545 22.8771 18.0986 22.3956C17.8952 22.135 17.6241 22.0784 17.3698 22.2483Z" fill="white"/>
<path d="M14.0227 23.9024C13.8363 24.0044 13.8278 24.027 13.921 24.2366C14.0566 24.5368 14.6074 24.9504 15.0819 25.0977C15.3531 25.1826 15.6242 25.2166 16.0479 25.2166C16.5648 25.2166 16.658 25.1996 16.7682 25.092C16.9376 24.9277 16.9376 24.8994 16.7343 24.7634C16.6072 24.6785 16.497 24.6615 16.1665 24.6841C15.5564 24.7294 15.0734 24.5425 14.743 24.1403C14.4549 23.7948 14.3108 23.7438 14.0227 23.9024Z" fill="white"/>
<path d="M26.1655 11.4173C25.3181 11.6042 24.7334 11.9385 24.2928 12.4879L24.064 12.7825L24.0386 19.3366C24.0216 25.8228 24.0216 25.8964 24.1911 26.242C24.4114 26.6781 24.691 26.9727 25.174 27.2786C26.3349 28.0264 28.0974 28.1963 29.5464 27.7035C29.9616 27.5618 30.7328 27.086 30.97 26.8311C31.1056 26.6838 31.2242 26.6385 31.6225 26.5762C32.7071 26.4176 33.5714 25.9701 34.0544 25.3243C34.2154 25.1147 34.3679 24.8314 34.4018 24.6955C34.4357 24.5539 34.5628 24.3783 34.7069 24.2706C35.5458 23.6248 35.8424 22.6675 35.4356 21.9028C35.317 21.6875 35.3255 21.6648 35.4865 21.5346C35.7576 21.308 36.0373 20.8548 36.1389 20.4526C36.2576 19.9824 36.1559 19.5462 35.8 19.0647C35.5882 18.7702 35.5458 18.6512 35.5458 18.2887C35.5458 17.3426 34.7577 16.4363 33.5799 16.0341L33.2748 15.9321L33.241 15.1504C33.2155 14.397 33.2071 14.3516 32.9359 13.9891C32.4614 13.3377 31.5716 12.9128 30.4531 12.7938L29.8939 12.7315L29.6566 12.4313C29.1736 11.8082 28.1822 11.389 27.123 11.355C26.7671 11.3437 26.3773 11.372 26.1655 11.4173ZM27.7246 11.9668C28.1313 12.0631 28.572 12.301 28.8008 12.5333C28.9194 12.6522 29.0211 12.7712 29.0211 12.7938C29.0211 12.8222 28.7753 12.9241 28.4703 13.0318C27.9195 13.2187 27.3263 13.6039 27.3263 13.7682C27.3263 13.8815 27.5806 14.0571 27.75 14.0571C27.8263 14.0571 28.0212 13.9664 28.1822 13.8531C29.1567 13.1734 30.7412 13.1394 31.7326 13.7795C32.275 14.1307 32.436 14.4253 32.4783 15.156L32.5207 15.7735L32.1394 15.7395C30.7158 15.6092 29.0634 16.221 28.3856 17.133C28.0466 17.5806 28.0297 17.6599 28.233 17.8071C28.5042 18.0111 28.8177 17.8921 29.0041 17.5296C29.2668 16.9971 30.2074 16.4476 31.0632 16.3286C31.6818 16.238 32.0716 16.2493 32.6986 16.3796C33.4443 16.5382 34.1476 16.9631 34.4866 17.4673C34.6899 17.7618 34.7323 17.9261 34.7662 18.4189C34.8001 18.9118 34.8425 19.0421 35.0035 19.212C35.4865 19.7048 35.4865 20.4073 35.0204 20.9794C34.1137 22.0897 31.8682 22.2596 30.6226 21.3193C30.4446 21.1833 30.2328 20.9511 30.1565 20.8095C29.9616 20.4526 29.8854 20.4016 29.6058 20.4016C29.2499 20.4016 29.1567 20.5602 29.3261 20.8944C29.7413 21.7215 30.7751 22.305 32.1055 22.4522C32.7918 22.5259 33.4528 22.4636 34.1646 22.2426C34.4273 22.1633 34.6645 22.1124 34.6899 22.135C34.7154 22.152 34.7577 22.3673 34.7662 22.6109C34.8001 22.9961 34.7747 23.098 34.5798 23.3869C34.4527 23.5682 34.1985 23.8174 34.0205 23.9421C33.7409 24.1347 33.6731 24.2253 33.6053 24.5312C33.4952 24.9957 33.1308 25.4206 32.6139 25.6868C31.47 26.2703 29.7583 26.174 28.8855 25.4772C28.5296 25.194 28.2923 25.1487 28.0551 25.3243C27.8602 25.4659 27.928 25.5905 28.3517 25.8851C28.7753 26.1797 29.1905 26.3609 29.7668 26.4969C30.0125 26.5535 30.2074 26.6215 30.2074 26.6385C30.2074 26.6612 30.0125 26.7971 29.7837 26.9387C29.1567 27.3069 28.572 27.4429 27.6653 27.4146C27.0467 27.3976 26.8688 27.3636 26.4112 27.1993C25.7841 26.9784 25.352 26.6781 25.0469 26.242L24.8266 25.9247L24.8012 19.5859C24.7758 12.4653 24.7504 12.8505 25.3859 12.386C25.8604 12.0461 26.3095 11.9045 26.962 11.9045C27.2501 11.9045 27.589 11.9328 27.7246 11.9668Z" fill="white"/>
<path d="M28.1567 14.5499C28.0805 14.5612 27.9618 14.6688 27.8941 14.7821C27.6314 15.2183 27.0382 15.4563 26.3349 15.3996C26.0299 15.3769 25.9197 15.3939 25.7926 15.4789C25.174 15.8924 26.5552 16.1417 27.5466 15.7961C28.2161 15.5695 28.716 15.1164 28.6652 14.7821C28.6397 14.6009 28.4364 14.5102 28.1567 14.5499Z" fill="white"/>
<path d="M30.8853 17.269C30.5887 17.3086 30.4616 17.3936 30.4616 17.5409C30.4616 17.7335 30.6819 17.8185 31.1141 17.8015C31.3174 17.7958 31.6225 17.8185 31.775 17.8524C32.1055 17.9261 32.5546 18.2376 32.6309 18.4472C32.7071 18.6568 32.9613 18.7305 33.224 18.6172C33.5545 18.4756 33.4359 18.113 32.9274 17.7278C32.4868 17.3879 31.5547 17.1783 30.8853 17.269Z" fill="white"/>
<path d="M28.4025 19.0477C27.945 19.1213 27.6314 19.2403 27.301 19.4669C26.7502 19.8464 26.5807 20.3449 26.979 20.4299C27.2332 20.4809 27.4111 20.4016 27.5975 20.1353C27.6907 19.9994 27.9111 19.8181 28.0721 19.7331C28.3263 19.6028 28.4618 19.5802 28.9364 19.5745C29.2414 19.5745 29.538 19.5519 29.5973 19.5292C29.7583 19.4669 29.7244 19.1667 29.5549 19.11C29.3092 19.0194 28.7415 18.991 28.4025 19.0477Z" fill="white"/>
<path d="M28.3686 22.2257C28.3348 22.2653 28.2246 22.4013 28.1314 22.5259C27.8772 22.8658 27.4959 23.0074 26.8519 23.0074C26.2672 23.0074 26.0299 23.1037 26.0723 23.3076C26.1147 23.5002 26.4536 23.5852 27.0891 23.5569C28.0043 23.5172 28.7415 23.1433 29.0211 22.5769C29.1059 22.4069 29.0974 22.3616 28.9703 22.2653C28.8093 22.1407 28.4703 22.1237 28.3686 22.2257Z" fill="white"/>
<path d="M31.8259 23.8797C31.775 23.9194 31.6394 24.0667 31.5378 24.2026C31.2666 24.5369 30.7412 24.7295 30.182 24.6841C29.8515 24.6615 29.7413 24.6785 29.6142 24.7634C29.4024 24.9051 29.4024 24.9617 29.6142 25.1033C29.86 25.2676 30.6989 25.2619 31.2751 25.0807C31.7665 24.9277 32.2495 24.5765 32.4105 24.2536C32.5122 24.0497 32.5037 24.0157 32.3682 23.9137C32.1902 23.7834 31.9614 23.7665 31.8259 23.8797Z" fill="white"/>
<defs>
<linearGradient id="paint0_linear_33_38" x1="30.6409" y1="0.116408" x2="0.153395" y2="30.6039" gradientUnits="userSpaceOnUse">
<stop stop-color="#06B6D4"/>
<stop offset="1" stop-color="#06B6D4"/>
</linearGradient>
</defs>
</svg>
